<?xml version="1.0" encoding="UTF-8" standalone="no"?>
<svg
   style="height: 512px; width: 512px;"
   viewBox="0 0 512 512"
   version="1.1"
   id="svg2947"
   sodipodi:docname="sliced-bread.svg"
   inkscape:version="1.2.1 (9c6d41e410, 2022-07-14)"
   xmlns:inkscape="http://www.inkscape.org/namespaces/inkscape"
   xmlns:sodipodi="http://sodipodi.sourceforge.net/DTD/sodipodi-0.dtd"
   xmlns="http://www.w3.org/2000/svg"
   xmlns:svg="http://www.w3.org/2000/svg">
  <defs
     id="defs2951" />
  <sodipodi:namedview
     id="namedview2949"
     pagecolor="#505050"
     bordercolor="#eeeeee"
     borderopacity="1"
     inkscape:showpageshadow="0"
     inkscape:pageopacity="0"
     inkscape:pagecheckerboard="0"
     inkscape:deskcolor="#505050"
     showgrid="false"
     inkscape:zoom="0.38183594"
     inkscape:cx="-779.13043"
     inkscape:cy="117.85166"
     inkscape:window-width="1920"
     inkscape:window-height="1011"
     inkscape:window-x="0"
     inkscape:window-y="0"
     inkscape:window-maximized="1"
     inkscape:current-layer="svg2947" />
  <path
     d="m 274.75,129.468 c -2.095,0.006 -4.183,0.034 -6.28,0.095 -33.56996,0.97 -67.17996,9.115 -88.84496,22.812 -10.832,6.848 -18.573,14.884 -22.656,23.78 -4.085,8.898 -4.943,18.814 -0.94,31.345 14.19,44.4 19.552,79.75 1.657,135.22 v 0.217 l -0.468,1.407 c -1.297,3.94 -1.203,11.898 1.81,17.47 3.016,5.57 7.7,9.873 19.75,9.873 7.3,0 16.987,-0.02 25.97,-0.03 21.836,-16.527 47.34996,-35.183 66.37496,-49.97 10.12,-7.864 22.774,-9.62 34.125,-9.312 11.35,0.31 21.408,2.634 28.563,6.063 19.722,9.444 37.077,15.635 55,20.125 -0.143,-0.97 -0.34,-1.807 -0.563,-2.47 -16.222,-47.974 -24.11,-90.38 -8.406,-137.718 4.08,-12.298 3.23,-21.644 -0.688,-29.844 -3.918,-8.198 -11.416,-15.53 -22.125,-21.593 -18.74,-10.607 -46.79,-16.7 -76,-17.406 -2.085,-0.05 -4.185,-0.067 -6.28,-0.06 z m 28.344,201.563 c -0.55,0 -1.084,0.015 -1.625,0.033 -7.572,0.246 -14.643,2.085 -18.876,5.375 -24.37,18.94 -58.59696,43.71 -82.27996,62.187 -4.67,3.642 -6.184,6.524 -6.564,8.03 -0.38,1.51 -0.246,2.165 0.813,3.658 2.116,2.985 9.79,6.963 17.406,6.906 54.72396,-0.405 97.38996,12.696 133.40496,30.03 19.53,9.4 43.448,9.722 66.72,4.063 23.27,-5.66 45.638,-17.31 61.03,-30.188 15.392,-12.878 22.33,-26.61 21.063,-33.938 -0.634,-3.664 -2.582,-6.99 -8.75,-10.656 -6.17,-3.664 -16.564,-7.015 -31.688,-8.655 -49.392,-5.353 -83.953,-11.502 -128,-32.594 -3.328,-1.594 -12.244,-3.98 -21,-4.217 -0.547,-0.015 -1.108,-0.03 -1.656,-0.032 z"
     fill="#ffffff"
     fill-opacity="1"
     id="path2943-2"
     sodipodi:nodetypes="ccsccccccsccccccsccccccccccccscsccccscc"
     style="fill:#cdab8f" />
  <path
     d="m 141.97,14.437994 c -42.682,0.018 -82.778,11.23 -101.282,31.187 C 10.036,78.682998 41.926,132.415 17.968,213.688 c -8.613,29.22 74.178,97.934 122.188,151.625 -3.125,-8.49 -3.153,-17.208 -1.156,-24.688 v -0.688 l 0.47,-1.437 c 17.554,-53.406 12.688,-81.692 -1.25,-125.313 -5.194,-16.25 -4.224,-31.73 1.78,-44.812 6.004,-13.082 16.6,-23.578 29.625,-31.813 26.05,-16.47 62.195,-24.613 98.313,-25.656 4.514,-0.13 9.006,-0.157 13.5,-0.062 23.43,0.492 46.31,4.073 65.906,11.22 C 341.552,116.024 335.001,109.941 328,103.844 286.15,79.690998 172.493,85.451998 119.97,119.969 153.035,75.742998 234.74,53.774994 304.5,84.561998 c -8.257,-6.463 -16.738,-12.862 -25.125,-19.126004 -41.113,-24.75 -156.01,-19.166 -208.905,15.594004 C 102.665,37.969994 181,15.982994 249.5,43.279994 c -28.753,-19.812 -69.177,-28.86 -107.53,-28.843 z M 499.344,421.531 c -4.112,4.84 -8.944,9.494 -14.22,13.908 -17.895,14.973 -42.335,27.645 -68.593,34.03 -26.256,6.387 -54.58,6.498 -79.25,-5.374 -34.164,-16.444 -73.45,-28.57 -125.155,-28.188 -7.96,0.06 -15.778,-1.69 -22.313,-5.406 1.91,16.26 11.684,30.165 29.344,30.03 51.222,-0.39 81.323,12.19 117.813,25.533 57.38,20.98 162.374,-11.593 162.374,-49.125 V 421.53 Z"
     fill="#ffffff"
     fill-opacity="1"
     id="path2943-1"
     inkscape:transform-center-x="-776.80051"
     inkscape:transform-center-y="-32.503836"
     style="fill:#865e3c"
     sodipodi:nodetypes="ccccccccsscccccccccccccccccccscc" />
</svg>
