<?xml version="1.0" encoding="UTF-8" standalone="no"?>
<svg
   viewBox="0 0 459.07803 465.29385"
   version="1.1"
   id="svg1611"
   sodipodi:docname="potato.svg"
   width="459.07803"
   height="465.29385"
   inkscape:version="1.2.1 (9c6d41e410, 2022-07-14)"
   xmlns:inkscape="http://www.inkscape.org/namespaces/inkscape"
   xmlns:sodipodi="http://sodipodi.sourceforge.net/DTD/sodipodi-0.dtd"
   xmlns="http://www.w3.org/2000/svg"
   xmlns:svg="http://www.w3.org/2000/svg">
  <defs
     id="defs1615" />
  <sodipodi:namedview
     id="namedview1613"
     pagecolor="#505050"
     bordercolor="#eeeeee"
     borderopacity="1"
     inkscape:showpageshadow="0"
     inkscape:pageopacity="0"
     inkscape:pagecheckerboard="0"
     inkscape:deskcolor="#505050"
     showgrid="false"
     inkscape:zoom="1.5273438"
     inkscape:cx="229.48338"
     inkscape:cy="234.39386"
     inkscape:window-width="1920"
     inkscape:window-height="1011"
     inkscape:window-x="0"
     inkscape:window-y="0"
     inkscape:window-maximized="1"
     inkscape:current-layer="svg1611" />
  <path
     d="m 292.72682,0.00156588 c -2.32,-0.012 -4.623,0.045 -6.91,0.17 -32.634,1.78500002 -59.5,19.06000012 -83.037,43.37900012 2.66,-0.203 5.282,-0.29 7.869,-0.272 12.174,0.086 23.67,2.211 35.773,2.51 -28.033,6.9 -52.033,20.858 -75.193,36.285 -21.288,29.627004 -40.322,62.404004 -59.662,89.459004 -22.085998,30.895 -53.901998,64.744 -77.913998,99.598 0.732,14.082 5.978,28.164 10.498,42.246 -10.128,-4.49 -21.515,-8 -26.453,-16.526 -16.76599984,30.855 -24.2569998,62.116 -10.6629998,92.473 31.1669998,69.595 149.4539978,92.973 219.7779978,63.488 5.424,-2.274 9.834,-5.623 13.53,-9.746 -15.474,-0.212 -25.976,-9.537 -37.894,-16.27 12.813,-1.045 32.757,4.492 47.43,1.155 9.07,-19.614 12.663,-45.32 24.451,-63.047 6.987,-10.507 15.425,-20.486 24.786,-30.111 -15.095,2.587 -30.333,2.536 -48.14,0.218 46.165,-16.967 65.593,-25.21 101.278,-46.933 55.884,-45.05 113.382,-88.332 106.217,-151.762 -7.97,-70.553004 -93.85,-135.93700412 -165.744,-136.31400412 z m 6.652,31.57400012 a 5.619,16.856 69.574 0 1 4.979,2.01 5.619,16.856 69.574 0 1 -13.836,11.148 5.619,16.856 69.574 0 1 -17.756,0.617 5.619,16.856 69.574 0 1 13.834,-11.148 5.619,16.856 69.574 0 1 11.928,-2.623 5.619,16.856 69.574 0 1 0.851,-0.004 z m 36.82,17.363 c 54.03,22.09 96.302,101.116004 73.745,147.490004 0.822,-37.224 -46.562,-114.000004 -73.745,-147.490004 z m -75.648,31.768 c 2.745,0.04 5.425,0.272 8.02,0.709 -42.065,23.811004 -82.712,49.368004 -113.133,87.520004 7.984,-46.066 63.938,-88.826004 105.113,-88.230004 z m -85.664,131.930004 a 24.458,7.659 19.293 0 1 18.674,3.771 24.458,7.659 19.293 0 1 20.056,15.289 24.458,7.659 19.293 0 1 -26.005,-1.146 24.458,7.659 19.293 0 1 -20.057,-15.291 24.458,7.659 19.293 0 1 7.332,-2.624 z m 76.748,136.412 a 5.619,16.856 69.672 0 1 4.975,2.017 5.619,16.856 69.672 0 1 -13.856,11.125 5.619,16.856 69.672 0 1 -17.758,0.586 5.619,16.856 69.672 0 1 13.856,-11.123 5.619,16.856 69.672 0 1 11.93,-2.603 5.619,16.856 69.672 0 1 0.853,-0.002 z m -205.622998,7.228 c 7.648,24.831 39.04,43.702 66.548998,68.533 -32.364998,-5.93 -76.157998,-14.548 -66.548998,-68.533 z"
     fill="#fff"
     fill-opacity="1"
     id="path1607"
     style="fill:#cdab8f" />
</svg>
