<?xml version="1.0" encoding="UTF-8" standalone="no"?>
<svg
   viewBox="0 0 439.39001 455.18143"
   version="1.1"
   id="svg1477"
   sodipodi:docname="half-log.svg"
   width="439.39001"
   height="455.18143"
   inkscape:version="1.2.1 (9c6d41e410, 2022-07-14)"
   xmlns:inkscape="http://www.inkscape.org/namespaces/inkscape"
   xmlns:sodipodi="http://sodipodi.sourceforge.net/DTD/sodipodi-0.dtd"
   xmlns="http://www.w3.org/2000/svg"
   xmlns:svg="http://www.w3.org/2000/svg">
  <defs
     id="defs1481" />
  <sodipodi:namedview
     id="namedview1479"
     pagecolor="#505050"
     bordercolor="#eeeeee"
     borderopacity="1"
     inkscape:showpageshadow="0"
     inkscape:pageopacity="0"
     inkscape:pagecheckerboard="0"
     inkscape:deskcolor="#505050"
     showgrid="false"
     inkscape:zoom="1.5273438"
     inkscape:cx="220.97187"
     inkscape:cy="227.84655"
     inkscape:window-width="1920"
     inkscape:window-height="1011"
     inkscape:window-x="0"
     inkscape:window-y="0"
     inkscape:window-maximized="1"
     inkscape:current-layer="svg1477" />
  <path
     d="m 368.69,0.00141535 c -1.1,0 -2.2,0 -3.3,0.1 -1.1,0 -2.3,0.11 -3.4,0.2 l -63.5,57.51999965 19.5,-45.12 c -19.6,9.56 -37.3,23.94 -48.8,41.1 L 56.69,371.08142 c 9.7,-4.8 19.7,-8.1 29.6,-9.9 l 31.5,-44.7 -12.1,43.2 c 2.7,0 5.4,0.1 8.1,0.4 17,1.7 33.4,7.5 48.7,16.8 l 82.8,-118.1 -56.8,138.4 c 14.9,14.5 28,32.8 38.3,53.8 L 439.39,59.611415 a 100.7,100.7 0 0 0 -4.3,-15.14 L 314.29,196.28142 422.99,23.041415 c -3.2,-3.77 -6.6,-7.03 -10.3,-9.8 -12.2,-9.1299997 -27.5,-13.32999965 -44,-13.23999965 z m -67.9,88.57999965 -144.5,227.200005 50.5,-122.2 z M 104.39,377.58142 h -3.5 l -4.5,40.5 -19.9,-36.1 c -26.68,8.9 -53.28,31.6 -76.49,73.2 l 48.97,-0.2 33.62,-22.6 -5.6,22.5 131.4,-0.4 c -9.4,-18 -20.9,-33.2 -33.7,-45.3 l -36.6,20.9 16.3,-36.9 c -13.6,-8.5 -27.9,-13.7 -42.4,-15.2 -2.5,-0.2 -5.1,-0.3 -7.6,-0.4 z"
     fill="#fff"
     fill-opacity="1"
     id="path1473"
     style="fill:#865e3c" />
</svg>
