<svg style="height: 512px; width: 512px;" xmlns="http://www.w3.org/2000/svg" viewBox="0 0 512 512"><defs><radialGradient id="lorc-oat-gradient-0"><stop offset="0%" stop-color="#cbab54" stop-opacity="1"></stop><stop offset="100%" stop-color="#d9a420" stop-opacity="1"></stop></radialGradient></defs><g class="" style="" transform="translate(0,0)"><g><path d="M253.787 24.672C234.327 24.866 214.574 27.488 194.907 32.758C69.032 66.486 -5.664 195.868 28.063 321.74C54.3 419.652 138.414 486.586 233.73 495.623C230.772 454.043 232.717 412.113 237.643 369.729L256.207 371.884C251.284 414.244 249.439 455.774 252.537 496.654C273.81 496.952 295.479 494.36 317.045 488.581C442.918 454.853 517.615 325.474 483.887 199.601C455.429 93.395 358.875 23.621 253.787 24.671Z" class="selected" fill="#cbab54" fill-opacity="0" stroke="#d9a420" stroke-opacity="1" stroke-width="8"></path><path d="M270.062 45.112C284.402 74.935 290.862 102.362 290.08 123.572L261.59 157.17L237.484 118.07C240.419 97.514 251.524 72.264 270.062 45.11Z" class="" fill="#d9a420" fill-opacity="1"></path><path d="M199.184 109.455C205.907 113.57 212.182 117.782 218.037 122.057L218.002 122.077L251.689 176.723L248.677 215.639L206.255 170.706C201.715 153.516 199.147 132.786 199.183 109.454Z" class="" fill="#d9a420" fill-opacity="1" stroke="#d9a420" stroke-opacity="1" stroke-width="4"></path><path d="M332.076 119.502C328.752 141.595 323.429 160.98 316.773 176.906L267.437 215.451L270.525 175.528L308.518 130.728C315.808 126.805 323.658 123.045 332.076 119.503Z" class="" fill="#d9a420" fill-opacity="1" stroke="#d9a420" stroke-opacity="1" stroke-width="4"></path><path d="M185.496 187.584C191.723 189.864 197.646 192.258 203.248 194.744L246.73 240.8L243.557 281.81L206.367 260.877C195.387 245.033 187.493 220.462 185.497 187.584Z" class="" fill="#d9a420" fill-opacity="1" stroke="#d9a420" stroke-opacity="1" stroke-width="4"></path><path d="M338.236 199.049C331.629 228.974 320.908 251.029 308.438 265.229L262.215 282.921L265.485 240.691L309.937 205.961C318.667 203.339 328.113 201.015 338.237 199.048Z" class="" fill="#d9a420" fill-opacity="1" stroke="#d9a420" stroke-opacity="1" stroke-width="4"></path><path d="M179.096 275.4C185.972 276.075 192.536 276.975 198.799 278.06L241.966 302.357L238.079 352.593C216.985 347.027 194.391 321.618 179.095 275.399Z" class="" fill="#d9a420" fill-opacity="1" stroke="#d9a420" stroke-opacity="1" stroke-width="4"></path><path d="M318.334 285.357C322.178 285.335 326.118 285.397 330.146 285.542C307.246 332.509 279.216 354.592 256.682 354.434L260.619 303.54L307.337 285.657C310.91 285.479 314.574 285.377 318.333 285.357Z" class="" fill="#d9a420" fill-opacity="1" stroke="#d9a420" stroke-opacity="1" stroke-width="4"></path></g></g></svg>