<?xml version="1.0" encoding="UTF-8" standalone="no"?>
<svg
   viewBox="0 0 461.18707 420.33301"
   version="1.1"
   id="svg1115"
   sodipodi:docname="steak.svg"
   width="461.18707"
   height="420.33301"
   inkscape:version="1.2.1 (9c6d41e410, 2022-07-14)"
   xmlns:inkscape="http://www.inkscape.org/namespaces/inkscape"
   xmlns:sodipodi="http://sodipodi.sourceforge.net/DTD/sodipodi-0.dtd"
   xmlns="http://www.w3.org/2000/svg"
   xmlns:svg="http://www.w3.org/2000/svg">
  <defs
     id="defs1119" />
  <sodipodi:namedview
     id="namedview1117"
     pagecolor="#505050"
     bordercolor="#eeeeee"
     borderopacity="1"
     inkscape:showpageshadow="0"
     inkscape:pageopacity="0"
     inkscape:pagecheckerboard="0"
     inkscape:deskcolor="#505050"
     showgrid="false"
     inkscape:zoom="0.53999756"
     inkscape:cx="686.11421"
     inkscape:cy="133.33394"
     inkscape:window-width="1920"
     inkscape:window-height="1011"
     inkscape:window-x="0"
     inkscape:window-y="0"
     inkscape:window-maximized="1"
     inkscape:current-layer="svg1115" />
  <g
     class=""
     transform="translate(725.66003,283.49642)"
     id="g1113"
     style="fill:#ffffff">
    <path
       d="m -455.20974,-283.49642 c -0.957,0.003 -1.917,0.014 -2.88,0.035 -46.15,0.993 -96.56,23.687 -128.614,54.82 -41.965,40.758 -91.926,108.163 -118.896,173.047 -13.486,32.442 -21.17,64.22 -19.93,91.305 1.24,27.085 10.723,49.188 32.54,65.546 15.71,11.78 28.638,10.986 44.814,2.72 16.175,-8.268 34.067,-25.324 52.433,-45.405 36.732,-40.162 74.766,-92.452 121.008,-107.932 61.794,-20.685 98.278,-34.43 120.926,-46.785 22.646,-12.353 31.392,-22.466 40.74,-39.08 7.302,-12.974 8.365,-26.067 5.03,-39.882 -3.334,-13.814 -11.388,-28.167 -22.45,-41.62 -22.127,-26.903 -56.253,-49.946 -83.706,-60.003 -12.75,-4.67 -26.652,-6.79 -41.016,-6.764 z m 3.418,24.26 c 21.21,-0.103 42.145,4.338 58.493,16.677 47.554,35.895 86.454,58.96 54.377,111.88 -32.076,52.923 -177.004,58.17 -217.56,20.06 -1.663,-10.596 -12.613,-91.45 10.176,-121.653 12.52,-10.007 54.02,-26.77 94.513,-26.965 z m -119.87,43.66 c -1.058,1.99 -7.086,83.113 -10.403,98.937 -19.397,9.728 -71.78,21.074 -73.92,6.977 3.618,-16.654 37.1,-71.993 84.324,-105.915 z m 278.095,26.248 c 1.196,3.294 2.213,6.627 3.026,9.996 4.2,17.4 2.736,35.916 -6.84,52.933 -10.34,18.374 -23.007,32.528 -47.808,46.057 -24.8,13.53 -61.8,27.285 -123.832,48.05 -36.878,12.346 -75.83,61.892 -113.438,103.012 -18.804,20.56 -37.417,39.008 -57.525,49.285 -5.895,3.014 -12.05,5.204 -18.322,6.418 3.03,1.73 6.143,3.338 9.165,4.728 8.116,3.734 16.547,5.668 17.197,5.686 14.037,-0.65 29.08,-8.326 44.816,-21.024 15.82,-12.764 32.063,-30.284 48.493,-48.676 32.86,-36.784 65.744,-77.523 104.444,-90.478 61.817,-20.694 98.67,-34.278 121.465,-46.543 22.794,-12.264 31.4,-22.235 40.044,-39.028 9.733,-18.912 10.244,-32.256 4.506,-46.28 -4.33,-10.583 -12.968,-21.73 -25.39,-34.135 z m -314.546,95.466 c 33.96,-0.19 69.09,16.75 104.688,36.092 -71.258,37.318 -141.89,180.326 -187.133,133.99 -18.206,-20.105 -19.433,-119.77 30.147,-153.564 17.043,-11.616 34.51,-16.418 52.297,-16.518 z m -36.463,73.213 c -5.436,0.103 -10.92,1.77 -14.74,4.787 -12.34,9.753 -21.72,34.145 -11.206,45.844 10.057,11.19 35.46,5.816 44.728,-6.012 8.262,-10.544 5.69,-31.088 -4.32,-40.02 -3.632,-3.24 -9.023,-4.7 -14.46,-4.6 z"
       fill="#ffffff"
       fill-opacity="1"
       id="path1111-9"
       style="fill:#ffffff" />
  </g>
  <path
     id="rect1290"
     style="fill:#a51d2d;stroke-width:0.755906"
     d="m 417.61976,108.38759 c 3.335,13.81499 2.2727,26.90883 -5.0293,39.88282 -9.34799,16.61398 -18.09425,26.72709 -40.74023,39.08007 -22.64798,12.35499 -59.13184,26.10018 -120.92578,46.78516 -46.24196,15.47998 -84.27585,67.76968 -121.00781,107.93164 -18.36599,20.08098 -36.258613,37.13631 -52.433597,45.4043 -16.175983,8.26599 -29.104468,9.06124 -44.814453,-2.71875 l 34.685547,25.16601 c 6.271994,-1.214 12.427272,-3.40397 18.322266,-6.41797 20.107977,-10.27699 38.719457,-28.72517 57.523437,-49.28515 37.60796,-41.11996 76.56149,-90.66573 113.43945,-103.01172 62.03194,-20.76498 99.03206,-34.5208 123.83203,-48.05078 24.80098,-13.52899 37.46665,-27.68266 47.80664,-46.05664 9.57599,-17.01699 11.03984,-35.53361 6.83985,-52.9336 -0.813,-3.36899 -1.82939,-6.70209 -3.02539,-9.99609 l 0.002,0.002 M 273.86585,24.258687 c -40.49295,0.195 -81.99173,16.957854 -94.51171,26.964844 C 156.56516,81.4265 167.51536,162.27988 169.17835,172.87587 209.73431,210.98584 354.66098,205.74023 386.73695,152.81728 418.81392,99.89733 379.91395,76.83139 332.36,40.936421 316.01201,28.597434 295.07779,24.155687 273.86781,24.258687 Z M 153.99671,67.9208 c -47.22278,33.9221 -80.704321,89.25838 -84.32226,105.91211 2.139998,14.09698 54.52294,2.75142 73.91992,-6.97657 3.31688,-15.82344 9.34404,-96.94019 10.40234,-98.93554 z M 432.09437,94.16884 379.95855,50.549368 c 11.06199,13.452992 34.32721,44.024242 37.66121,57.838222 m -300.07422,81.2461 c -17.786979,0.1 -35.253889,4.90159 -52.296871,16.51758 C 15.668718,239.94523 16.896202,339.61074 35.102184,359.71572 80.345139,406.05167 150.97707,263.04345 222.235,225.72548 186.63703,206.3835 151.50746,189.44369 117.5475,189.63369 Z m -36.460934,73.21093 c 5.436995,-0.1 10.828941,1.36157 14.460937,4.60157 10.009987,8.93199 12.582307,29.47554 4.320313,40.01953 -9.267991,11.82799 -34.671526,17.20171 -44.728516,6.01172 -10.513989,-11.69899 -1.132956,-36.09076 11.207032,-45.84375 3.819996,-3.017 9.302286,-4.68411 14.738281,-4.78711 z"
     sodipodi:nodetypes="ccccsccccsccccccsccccsscccccccscccssccccccc" />
</svg>
