<?xml version="1.0" encoding="UTF-8" standalone="no"?>
<svg
   viewBox="0 0 446.01999 414.01001"
   version="1.1"
   id="svg1338"
   sodipodi:docname="wood-beam.svg"
   inkscape:version="1.2.1 (9c6d41e410, 2022-07-14)"
   width="446.01999"
   height="414.01001"
   xmlns:inkscape="http://www.inkscape.org/namespaces/inkscape"
   xmlns:sodipodi="http://sodipodi.sourceforge.net/DTD/sodipodi-0.dtd"
   xmlns="http://www.w3.org/2000/svg"
   xmlns:svg="http://www.w3.org/2000/svg">
  <defs
     id="defs1342" />
  <sodipodi:namedview
     id="namedview1340"
     pagecolor="#505050"
     bordercolor="#eeeeee"
     borderopacity="1"
     inkscape:showpageshadow="0"
     inkscape:pageopacity="0"
     inkscape:pagecheckerboard="0"
     inkscape:deskcolor="#505050"
     showgrid="false"
     inkscape:zoom="0.53999756"
     inkscape:cx="-75.000339"
     inkscape:cy="225.92695"
     inkscape:window-width="1920"
     inkscape:window-height="1011"
     inkscape:window-x="0"
     inkscape:window-y="0"
     inkscape:window-maximized="1"
     inkscape:current-layer="svg1338" />
  <path
     d="M 235.42,0 9.57,286.01 h 39.65 l 75.9,-104.2 14.6,10.6 -68.3,93.6 h 27.5 l 28.2,-30.4 -1.6,30.4 h 116.8 L 437.92,0 h -50.6 l -150,219.91 -14.8,-10.2 L 365.62,0 h -34.9 L 282.92,66.51 268.32,55.91 308.52,0 Z m 210.6,20.09 -190,277.72 v 30.7 l 68.9,-100.8 14.8,10.2 -83.7,122.4 v 32.3 l 190,-292.3 v -11.7 l -22,5.8 22,-33.3 z M 0,304.01 v 110 h 23.83 l 10.54,-38.1 11.13,38.1 h 37.62 c -2.2,-5.7 -3.4,-11.8 -3.4,-18.2 0,-18.6 10.4,-35 25.9,-46.3 15.5,-11.2 36.2,-17.8 58.9,-17.8 22.7,0 43.4,6.6 58.9,17.8 5.6,4.1 10.6,8.9 14.6,14.2 v -59.7 z m 164.52,45.7 c -19.2,0 -36.4,5.7 -48.3,14.4 -12,8.7 -18.5,19.8 -18.5,31.7 0,6.4 1.9,12.5 5.5,18.2 h 16.3 c -3.3,-4.7 -5.4,-10.1 -5.4,-16.1 0,-11.2 7.1,-20.4 16.5,-26.3 9.3,-6 21.3,-9.2 34.4,-9.2 13.1,0 25.1,3.2 34.4,9.2 9.4,5.9 16.5,15.1 16.5,26.3 0,6 -2.1,11.4 -5.4,16.1 h 15.3 c 3.6,-5.7 5.5,-11.8 5.5,-18.2 0,-11.9 -6.5,-23 -18.5,-31.7 -11.9,-8.7 -29.1,-14.4 -48.3,-14.4 z m 0.5,30.7 c -10,0 -19,2.7 -24.8,6.4 -5.8,3.7 -8.1,7.6 -8.1,11.1 0,3.5 2.3,7.4 8.1,11.1 3.3,2.1 7.6,3.9 12.5,5 h 24.6 c 4.9,-1.1 9.2,-2.9 12.5,-5 5.8,-3.7 8.1,-7.6 8.1,-11.1 0,-3.5 -2.3,-7.4 -8.1,-11.1 -5.8,-3.7 -14.8,-6.4 -24.8,-6.4 z"
     fill="#fff"
     fill-opacity="1"
     id="path1334"
     style="fill:#865e3c;stroke:none" />
</svg>
